<svg width="17" height="13" viewBox="0 0 17 13" fill="none" xmlns="http://www.w3.org/2000/svg">
<g clip-path="url(#clip0_416_99)">
<path d="M5.85 6.5001C7.6175 6.5001 9.05 5.0676 9.05 3.3001C9.05 1.5326 7.6175 0.100098 5.85 0.100098C4.0825 0.100098 2.65 1.5326 2.65 3.3001C2.65 5.0676 4.0825 6.5001 5.85 6.5001ZM4.7075 7.7001C2.245 7.7001 0.25 9.6951 0.25 12.1576C0.25 12.5676 0.5825 12.9001 0.9925 12.9001H10.7075C10.9575 12.9001 11.1775 12.7776 11.3125 12.5876L8.8325 10.1076C8.46 9.7351 8.25 9.2301 8.25 8.7051V7.8801C7.8525 7.7626 7.43 7.7001 6.9925 7.7001H4.7075ZM9.85 5.7001C9.4075 5.7001 9.05 6.0576 9.05 6.5001V8.5676C9.05 8.9926 9.2175 9.4001 9.5175 9.7001L12.2025 12.3826C12.67 12.8501 13.43 12.8501 13.9 12.3826L15.735 10.5476C16.2025 10.0801 16.2025 9.3201 15.735 8.8501L13.05 6.1676C12.75 5.8676 12.3425 5.7001 11.9175 5.7001H9.85ZM11.65 7.7001C11.65 8.0326 11.3825 8.3001 11.05 8.3001C10.7175 8.3001 10.45 8.0326 10.45 7.7001C10.45 7.3676 10.7175 7.1001 11.05 7.1001C11.3825 7.1001 11.65 7.3676 11.65 7.7001Z" fill="#E12454"/>
</g>
<defs>
<clipPath id="clip0_416_99">
<rect width="16" height="12.8" fill="white" transform="translate(0.25 0.100098)"/>
</clipPath>
</defs>
</svg>
