<svg width="36" height="36" viewBox="0 0 36 36" fill="none" xmlns="http://www.w3.org/2000/svg">
<g clip-path="url(#clip0_7_173)">
<path d="M31.5 18C31.5 10.5469 25.4531 4.5 18 4.5C10.5469 4.5 4.5 10.5469 4.5 18C4.5 25.4531 10.5469 31.5 18 31.5C25.4531 31.5 31.5 25.4531 31.5 18ZM36 18C36 27.9422 27.9422 36 18 36C8.05781 36 0 27.9422 0 18C0 8.05781 8.05781 0 18 0C27.9422 0 36 8.05781 36 18ZM18 23.625C21.1078 23.625 23.625 21.1078 23.625 18C23.625 14.8922 21.1078 12.375 18 12.375C14.8922 12.375 12.375 14.8922 12.375 18C12.375 21.1078 14.8922 23.625 18 23.625ZM18 28.125C12.4102 28.125 7.875 23.5898 7.875 18C7.875 12.4102 12.4102 7.875 18 7.875C23.5898 7.875 28.125 12.4102 28.125 18C28.125 23.5898 23.5898 28.125 18 28.125ZM20.25 18C20.25 19.2445 19.2445 20.25 18 20.25C16.7555 20.25 15.75 19.2445 15.75 18C15.75 16.7555 16.7555 15.75 18 15.75C19.2445 15.75 20.25 16.7555 20.25 18Z" fill="white"/>
</g>
<defs>
<clipPath id="clip0_7_173">
<rect width="36" height="36" fill="white"/>
</clipPath>
</defs>
</svg>
