<svg width="16" height="16" viewBox="0 0 16 16" fill="none" xmlns="http://www.w3.org/2000/svg">
<path d="M2.41999 0.830014C2.20672 0.631294 1.92465 0.523109 1.6332 0.528251C1.34175 0.533394 1.06367 0.651461 0.857553 0.857581C0.651434 1.0637 0.533366 1.34178 0.528224 1.63323C0.523081 1.92468 0.631266 2.20675 0.829986 2.42001L6.40999 8.00001L0.829986 13.58C0.719456 13.683 0.630802 13.8072 0.569314 13.9452C0.507826 14.0832 0.474764 14.2322 0.472099 14.3832C0.469434 14.5343 0.49722 14.6843 0.553802 14.8244C0.610383 14.9645 0.6946 15.0917 0.801428 15.1986C0.908257 15.3054 1.03551 15.3896 1.17559 15.4462C1.31567 15.5028 1.46572 15.5306 1.61677 15.5279C1.76782 15.5252 1.91679 15.4922 2.05479 15.4307C2.19279 15.3692 2.31699 15.2805 2.41999 15.17L7.99999 9.59001L13.58 15.17C13.683 15.2805 13.8072 15.3692 13.9452 15.4307C14.0832 15.4922 14.2321 15.5252 14.3832 15.5279C14.5343 15.5306 14.6843 15.5028 14.8244 15.4462C14.9645 15.3896 15.0917 15.3054 15.1985 15.1986C15.3054 15.0917 15.3896 14.9645 15.4462 14.8244C15.5028 14.6843 15.5305 14.5343 15.5279 14.3832C15.5252 14.2322 15.4921 14.0832 15.4307 13.9452C15.3692 13.8072 15.2805 13.683 15.17 13.58L9.58999 8.00001L15.17 2.42001C15.3687 2.20675 15.4769 1.92468 15.4717 1.63323C15.4666 1.34178 15.3485 1.0637 15.1424 0.857581C14.9363 0.651461 14.6582 0.533394 14.3668 0.528251C14.0753 0.523109 13.7932 0.631294 13.58 0.830014L7.99999 6.41001L2.41999 0.830014Z" fill="#E12454"/>
</svg>
