<svg width="17" height="15" viewBox="0 0 17 15" fill="none" xmlns="http://www.w3.org/2000/svg">
<g clip-path="url(#clip0_416_93)">
<path d="M3.25 0C2.14688 0 1.25 0.802467 1.25 1.78947V12.5263C1.25 13.5133 2.14688 14.3158 3.25 14.3158H12.25C13.3531 14.3158 14.25 13.5133 14.25 12.5263V1.78947C14.25 0.802467 13.3531 0 12.25 0H3.25ZM6.75 8.05263H8.75C10.1313 8.05263 11.25 9.05362 11.25 10.2895C11.25 10.5355 11.025 10.7368 10.75 10.7368H4.75C4.475 10.7368 4.25 10.5355 4.25 10.2895C4.25 9.05362 5.36875 8.05263 6.75 8.05263ZM9.75 5.36842C9.75 6.35543 8.85313 7.15789 7.75 7.15789C6.64687 7.15789 5.75 6.35543 5.75 5.36842C5.75 4.38141 6.64687 3.57895 7.75 3.57895C8.85313 3.57895 9.75 4.38141 9.75 5.36842ZM16.25 2.23684C16.25 1.99079 16.025 1.78947 15.75 1.78947C15.475 1.78947 15.25 1.99079 15.25 2.23684V4.02632C15.25 4.27237 15.475 4.47368 15.75 4.47368C16.025 4.47368 16.25 4.27237 16.25 4.02632V2.23684ZM15.75 5.36842C15.475 5.36842 15.25 5.56974 15.25 5.81579V7.60526C15.25 7.85132 15.475 8.05263 15.75 8.05263C16.025 8.05263 16.25 7.85132 16.25 7.60526V5.81579C16.25 5.56974 16.025 5.36842 15.75 5.36842ZM16.25 9.39474C16.25 9.14868 16.025 8.94737 15.75 8.94737C15.475 8.94737 15.25 9.14868 15.25 9.39474V11.1842C15.25 11.4303 15.475 11.6316 15.75 11.6316C16.025 11.6316 16.25 11.4303 16.25 11.1842V9.39474Z" fill="#E12454"/>
</g>
<defs>
<clipPath id="clip0_416_93">
<rect width="16" height="14.3158" fill="white" transform="translate(0.25)"/>
</clipPath>
</defs>
</svg>
