<svg width="440" height="543" viewBox="0 0 440 543" fill="none" xmlns="http://www.w3.org/2000/svg">
<mask id="mask0_7_143" style="mask-type:alpha" maskUnits="userSpaceOnUse" x="41" y="91" width="382" height="380">
<path d="M241.245 447.735C184.988 470.408 110.326 486.191 68.3218 442.4C27.5408 399.883 76.0158 333.521 75.2188 274.642C74.3694 211.89 7.39217 123.911 63.6339 96.061C123.441 66.4453 156.811 186.739 221.799 202.057C287.598 217.566 371.338 125.244 413.069 178.425C452.157 228.239 362.24 284.314 328.204 337.66C301.744 379.133 286.887 429.34 241.245 447.735Z" fill="#77BB3C"/>
</mask>
<g mask="url(#mask0_7_143)">
<path d="M515.198 330.852C494.998 374.524 426.511 460.544 314.162 455.249C201.813 449.953 145.841 515.874 131.899 549.495" stroke="#77BB3C" stroke-width="9"/>
<path d="M502.012 311.692C481.811 355.364 413.324 441.383 300.975 436.088C188.626 430.793 132.654 496.713 118.712 530.335" stroke="#77BB3C" stroke-width="9"/>
<path d="M489.325 291.666C469.125 335.338 400.637 421.357 288.288 416.062C175.939 410.767 119.968 476.687 106.026 510.309" stroke="#77BB3C" stroke-width="9"/>
<path d="M477.005 273.006C456.867 316.568 388.522 402.341 276.241 396.929C163.96 391.516 108.1 457.243 94.2052 490.783" stroke="#77BB3C" stroke-width="9"/>
<path d="M464.318 252.979C444.118 296.651 375.63 382.671 263.281 377.375C150.932 372.08 94.9609 438 81.0187 471.622" stroke="#77BB3C" stroke-width="9"/>
<path d="M451.631 232.953C431.431 276.625 362.944 362.644 250.595 357.349C138.246 352.054 82.2743 417.974 68.3322 451.596" stroke="#77BB3C" stroke-width="9"/>
<path d="M438.447 213.794C418.23 257.456 349.806 343.512 237.843 338.44C125.881 333.368 69.9693 399.323 56.0088 432.934" stroke="#77BB3C" stroke-width="9"/>
<path d="M426.624 194.267C406.424 237.938 337.937 323.958 225.588 318.663C113.239 313.368 57.2673 379.288 43.3251 412.91" stroke="#77BB3C" stroke-width="9"/>
<path d="M413.938 174.24C393.738 217.912 325.25 303.932 212.901 298.636C100.552 293.341 44.5808 359.261 30.6386 392.883" stroke="#77BB3C" stroke-width="9"/>
<path d="M400.751 155.08C380.551 198.752 312.064 284.771 199.715 279.476C87.3658 274.181 31.3942 340.101 17.4521 373.723" stroke="#77BB3C" stroke-width="9"/>
<path d="M388.067 135.055C367.85 178.717 299.426 264.773 187.463 259.701C75.5007 254.629 19.5892 320.584 5.6287 354.195" stroke="#77BB3C" stroke-width="9"/>
<path d="M376.244 115.528C356.044 159.199 287.557 245.219 175.208 239.924C62.8588 234.629 6.8872 300.549 -7.05495 334.17" stroke="#77BB3C" stroke-width="9"/>
<path d="M363.058 96.3674C342.858 140.039 274.37 226.058 162.021 220.763C49.6722 215.468 -6.29932 281.388 -20.2415 315.01" stroke="#77BB3C" stroke-width="9"/>
<path d="M350.371 76.341C330.171 120.013 261.684 206.032 149.335 200.737C36.9857 195.442 -18.9859 261.362 -32.928 294.984" stroke="#77BB3C" stroke-width="9"/>
<path d="M337.687 56.3163C317.47 99.9782 249.046 186.034 137.083 180.962C25.1206 175.89 -30.7909 241.845 -44.7514 275.456" stroke="#77BB3C" stroke-width="9"/>
<path d="M325.364 37.6545C305.164 81.3261 236.677 167.346 124.328 162.051C11.9786 156.755 -43.9929 222.676 -57.9351 256.297" stroke="#77BB3C" stroke-width="9"/>
<path d="M312.678 17.6283C292.478 61.3 223.99 147.319 111.641 142.024C-0.707896 136.729 -56.6794 202.649 -70.6216 236.271" stroke="#77BB3C" stroke-width="9"/>
<path d="M299.991 -2.39802C279.791 41.2736 211.304 127.293 98.9545 121.998C-13.3944 116.703 -69.366 182.623 -83.3081 216.245" stroke="#77BB3C" stroke-width="9"/>
<path d="M286.807 -21.5568C266.59 22.1052 198.166 108.161 86.2031 103.089C-25.7595 98.0171 -81.6711 163.972 -95.6316 197.583" stroke="#77BB3C" stroke-width="9"/>
<path d="M274.984 -41.0845C254.784 2.58709 186.296 88.6066 73.9475 83.3115C-38.4015 78.0165 -94.3731 143.937 -108.315 177.558" stroke="#77BB3C" stroke-width="9"/>
<path d="M261.798 -60.2447C241.66 -16.682 173.315 69.0903 61.0342 63.678C-51.2471 58.2657 -107.107 123.992 -121.002 157.532" stroke="#77BB3C" stroke-width="9"/>
<path d="M249.111 -80.2711C228.911 -36.5994 160.423 49.4201 48.0744 44.125C-64.2746 38.8299 -120.246 104.75 -134.188 138.372" stroke="#77BB3C" stroke-width="9"/>
<path d="M237.29 -99.7974C217.09 -56.1258 148.603 29.8937 36.2539 24.5986C-76.0951 19.3036 -132.067 85.2236 -146.009 118.846" stroke="#77BB3C" stroke-width="9"/>
<path d="M224.104 -118.958C203.904 -75.286 135.416 10.7335 23.0673 5.43848C-89.2816 0.143412 -145.253 66.0635 -159.195 99.6854" stroke="#77BB3C" stroke-width="9"/>
</g>
</svg>
