<svg width="17" height="15" viewBox="0 0 17 15" fill="none" xmlns="http://www.w3.org/2000/svg">
<path d="M16.2444 7.25852C16.2444 7.76989 15.8278 8.17045 15.3556 8.17045H14.4667L14.4861 12.7216C14.4861 12.7983 14.4806 12.875 14.4722 12.9517V13.4091C14.4722 14.0369 13.975 14.5455 13.3611 14.5455H12.9167C12.8861 14.5455 12.8556 14.5455 12.825 14.5426C12.7861 14.5455 12.7472 14.5455 12.7083 14.5455H11.8056H11.1389C10.525 14.5455 10.0278 14.0369 10.0278 13.4091V12.7273V10.9091C10.0278 10.4062 9.63056 10 9.13889 10H7.36111C6.86944 10 6.47222 10.4062 6.47222 10.9091V12.7273V13.4091C6.47222 14.0369 5.975 14.5455 5.36111 14.5455H4.69444H3.80833C3.76667 14.5455 3.725 14.5426 3.68333 14.5398C3.65 14.5426 3.61667 14.5455 3.58333 14.5455H3.13889C2.525 14.5455 2.02778 14.0369 2.02778 13.4091V10.2273C2.02778 10.2017 2.02778 10.1733 2.03056 10.1477V8.17045H1.13889C0.638889 8.17045 0.25 7.77273 0.25 7.25852C0.25 7.00284 0.333333 6.77557 0.527778 6.5767L7.65 0.227273C7.84444 0.0284091 8.06667 0 8.26111 0C8.45556 0 8.67778 0.0568182 8.84444 0.198864L15.9389 6.5767C16.1611 6.77557 16.2722 7.00284 16.2444 7.25852Z" fill="#E12454"/>
</svg>
