<svg width="281" height="392" viewBox="0 0 281 392" fill="none" xmlns="http://www.w3.org/2000/svg">
<path d="M270.358 4.2875C278.091 9.64687 282.148 18.9109 280.694 28.175L231.694 346.675C230.545 354.102 226.028 360.609 219.444 364.284C212.859 367.959 204.973 368.419 198.006 365.509L101.308 325.314L70.6062 382.353C66.625 389.78 58.1266 393.531 49.9344 391.464C41.7422 389.397 36 382.047 36 373.625V300.125C36 296.067 37.3781 292.086 39.9047 288.87L166.462 126.098C168.377 120.662 161.486 115.15 156.509 119.667L19.4625 243.622L-5.03751 265.748C-12.0813 272.103 -22.1109 273.864 -30.9156 270.189L-95.9938 243.086C-104.569 239.487 -110.388 231.372 -110.923 222.031C-111.459 212.691 -106.713 203.886 -98.5969 199.216L244.403 3.21562C252.595 -1.45469 262.702 -0.995315 270.434 4.2875H270.358Z" fill="#67A432"/>
</svg>
