<svg width="24" height="24" viewBox="0 0 24 24" fill="none" xmlns="http://www.w3.org/2000/svg">
<g clip-path="url(#clip0_44_149)">
<path d="M23.3485 0.262679C23.8219 0.590804 24.0703 1.15799 23.9813 1.72518L20.9813 21.2252C20.911 21.6799 20.6344 22.0783 20.2313 22.3033C19.8281 22.5283 19.3453 22.5564 18.9188 22.3783L12.9985 19.9174L11.1188 23.4096C10.875 23.8642 10.3547 24.0939 9.85315 23.9674C9.35158 23.8408 9.00002 23.3908 9.00002 22.8752V18.3752C9.00002 18.1267 9.0844 17.883 9.23909 17.6861L16.9875 7.72049C17.1047 7.38768 16.6828 7.05018 16.3781 7.32674L7.98752 14.9158L6.48752 16.2705C6.05627 16.6596 5.44221 16.7674 4.90315 16.5424L0.918772 14.883C0.393772 14.6627 0.0375219 14.1658 0.00470938 13.5939C-0.0281031 13.0221 0.262522 12.483 0.759397 12.1971L21.7594 0.197054C22.261 -0.0888833 22.8797 -0.0607583 23.3531 0.262679H23.3485Z" fill="white"/>
</g>
<defs>
<clipPath id="clip0_44_149">
<rect width="24" height="24" fill="white"/>
</clipPath>
</defs>
</svg>
