<svg width="33" height="30" viewBox="0 0 33 30" fill="none" xmlns="http://www.w3.org/2000/svg">
<g clip-path="url(#clip0_7_157)">
<path d="M11.9168 2.8125C11.9168 4.36523 10.685 5.625 9.16677 5.625C7.64854 5.625 6.41677 4.36523 6.41677 2.8125C6.41677 1.25977 7.64854 0 9.16677 0C10.685 0 11.9168 1.25977 11.9168 2.8125ZM8.70843 20.625V28.125C8.70843 29.1621 7.88916 30 6.8751 30C5.86104 30 5.04177 29.1621 5.04177 28.125V15.0527L3.40323 17.8418C2.88187 18.7266 1.75323 19.0137 0.888121 18.4805C0.0230166 17.9473 -0.257713 16.793 0.263642 15.9082L3.60375 10.2246C4.60062 8.53125 6.38812 7.49414 8.31885 7.49414H10.0204C11.9511 7.49414 13.7386 8.53125 14.7355 10.2246L17.3079 14.6016C16.3855 15.6328 15.6694 16.8574 15.211 18.2051C15.1022 18.0996 15.0105 17.9766 14.9303 17.8359L13.2918 15.0527V28.125C13.2918 29.1621 12.4725 30 11.4584 30C10.4444 30 9.6251 29.1621 9.6251 28.125V20.625H8.70843ZM24.7501 30C20.1954 30 16.5001 26.2207 16.5001 21.5625C16.5001 16.9043 20.1954 13.125 24.7501 13.125C29.3048 13.125 33.0001 16.9043 33.0001 21.5625C33.0001 26.2207 29.3048 30 24.7501 30ZM24.7501 27.1875C25.5121 27.1875 26.1251 26.5605 26.1251 25.7812C26.1251 25.002 25.5121 24.375 24.7501 24.375C23.9881 24.375 23.3751 25.002 23.3751 25.7812C23.3751 26.5605 23.9881 27.1875 24.7501 27.1875ZM21.0834 18.8438V19.2188C21.0834 19.7344 21.4959 20.1562 22.0001 20.1562C22.5043 20.1562 22.9168 19.7344 22.9168 19.2188V18.8438C22.9168 18.5332 23.1631 18.2812 23.4668 18.2812H25.7871C26.2282 18.2812 26.5834 18.6445 26.5834 19.0957C26.5834 19.4004 26.4173 19.6758 26.1595 19.8164L24.3261 20.8008C24.0225 20.9648 23.8334 21.2812 23.8334 21.6328V22.5C23.8334 23.0156 24.2459 23.4375 24.7501 23.4375C25.2543 23.4375 25.6668 23.0156 25.6668 22.5V22.2012L27.0131 21.4805C27.8782 21.0176 28.4168 20.0977 28.4168 19.1016C28.4168 17.6133 27.2366 16.4121 25.7871 16.4121H23.4668C22.1491 16.4121 21.0834 17.502 21.0834 18.8496V18.8438Z" fill="white"/>
</g>
<defs>
<clipPath id="clip0_7_157">
<rect width="33" height="30" fill="white"/>
</clipPath>
</defs>
</svg>
