<svg width="17" height="19" viewBox="0 0 17 19" fill="none" xmlns="http://www.w3.org/2000/svg">
<g clip-path="url(#clip0_416_97)">
<path d="M15.5072 7.46437C15.5072 3.4608 12.2607 0.214367 8.25715 0.214367C4.25358 0.207224 1.00715 3.45008 1.00001 7.45008C0.997269 8.98439 1.48169 10.4799 2.38348 11.7213C3.28527 12.9626 4.55785 13.8856 6.01787 14.3572V17.9894C6.01787 18.1248 6.07168 18.2547 6.16745 18.3505C6.26323 18.4463 6.39313 18.5001 6.52858 18.5001H9.97144C10.1069 18.5001 10.2368 18.4463 10.3326 18.3505C10.4283 18.2547 10.4822 18.1248 10.4822 17.9894V14.3608C11.9408 13.8894 13.2127 12.9682 14.1155 11.7292C15.0182 10.4903 15.5054 8.9973 15.5072 7.46437ZM5.80715 7.46437C5.80715 4.22151 10.7107 4.22151 10.7107 7.46437C10.7072 10.6751 5.80715 10.7144 5.80715 7.46437Z" fill="#E12454"/>
</g>
<defs>
<clipPath id="clip0_416_97">
<rect width="16" height="18.2857" fill="white" transform="translate(0.25 0.214355)"/>
</clipPath>
</defs>
</svg>
