<svg width="17" height="17" viewBox="0 0 17 17" fill="none" xmlns="http://www.w3.org/2000/svg">
<path d="M6.98125 3.77075H4.75H3.61875H3.25V4.04575V5.27075V6.53325V9.3145L0.25625 7.09888C0.30625 6.53325 0.596875 6.00825 1.05937 5.66763L1.75 5.15513V3.77075C1.75 2.94263 2.42188 2.27075 3.25 2.27075H5.64375L7.20312 1.11763C7.50625 0.892627 7.87187 0.770752 8.25 0.770752C8.62813 0.770752 8.99375 0.892627 9.29688 1.1145L10.8562 2.27075H13.25C14.0781 2.27075 14.75 2.94263 14.75 3.77075V5.15513L15.4406 5.66763C15.9031 6.00825 16.1937 6.53325 16.2437 7.09888L13.25 9.3145V6.53325V5.27075V4.04575V3.77075H12.8813H11.75H9.51875H6.98125ZM0.25 14.7708V8.33638L7.05 13.3739C7.39688 13.6301 7.81875 13.7708 8.25 13.7708C8.68125 13.7708 9.10312 13.6333 9.45 13.3739L16.25 8.33638V14.7708C16.25 15.8739 15.3531 16.7708 14.25 16.7708H2.25C1.14688 16.7708 0.25 15.8739 0.25 14.7708ZM5.75 5.77075H10.75C11.025 5.77075 11.25 5.99575 11.25 6.27075C11.25 6.54575 11.025 6.77075 10.75 6.77075H5.75C5.475 6.77075 5.25 6.54575 5.25 6.27075C5.25 5.99575 5.475 5.77075 5.75 5.77075ZM5.75 7.77075H10.75C11.025 7.77075 11.25 7.99575 11.25 8.27075C11.25 8.54575 11.025 8.77075 10.75 8.77075H5.75C5.475 8.77075 5.25 8.54575 5.25 8.27075C5.25 7.99575 5.475 7.77075 5.75 7.77075Z" fill="#E12454"/>
</svg>
